<svg width="120" height="39" viewBox="0 0 120 39" fill="none" xmlns="http://www.w3.org/2000/svg">
<path d="M11.2757 32.8672C9.27791 32.8672 7.53404 32.3804 6.03739 31.4202C4.54075 30.4601 3.4517 29.1754 2.76351 27.5864C2.082 25.9974 1.935 24.28 2.33589 22.4341L6.27127 3.86685C6.38485 3.20422 6.71222 2.63625 7.25342 2.15618C7.79462 1.68287 8.49618 1.43945 9.3514 1.43945C10.0062 1.43945 10.5941 1.61525 11.1019 1.96009C11.6164 2.30493 11.9839 2.7512 12.211 3.29888C12.4382 3.84657 12.4783 4.4213 12.338 5.02984L10.9683 11.4804H12.5919L10.6275 12.3458C10.9683 11.8252 11.4227 11.3654 11.9973 10.9597C12.5652 10.554 13.1932 10.2565 13.8814 10.0537C14.5629 9.85083 15.2912 9.7494 16.0596 9.7494C17.6564 9.7494 19.0662 10.2498 20.2956 11.2437C21.5183 12.2377 22.4136 13.5562 22.9682 15.206C23.5227 16.849 23.5762 18.5665 23.1152 20.3583L22.0862 25.0305C21.7121 26.5857 21.0172 27.9583 19.9882 29.1416C18.9593 30.3248 17.7032 31.2377 16.1999 31.8868C14.7032 32.5359 13.0596 32.8604 11.2623 32.8604L11.2757 32.8672ZM11.7033 27.627C12.4182 27.627 13.073 27.4782 13.6676 27.174C14.2623 26.8697 14.7834 26.4437 15.2311 25.896C15.672 25.3483 15.966 24.7127 16.1063 23.9892L17.0484 19.4455C17.2222 18.607 17.182 17.8498 16.9415 17.1736C16.701 16.4974 16.3068 15.9565 15.7656 15.5508C15.2244 15.1451 14.5696 14.9423 13.8012 14.9423C13.1197 14.9423 12.4783 15.0978 11.877 15.4156C11.2756 15.7334 10.7679 16.1661 10.3402 16.7138C9.91263 17.2615 9.62535 17.8971 9.48504 18.6206L8.54293 23.1643C8.36922 23.9757 8.39597 24.7195 8.60977 25.4159C8.82358 26.1056 9.20439 26.6465 9.74558 27.0387C10.2868 27.4309 10.9416 27.6202 11.7099 27.6202L11.7033 27.627Z" fill="white"/>
<path d="M35.5696 32.8668C33.5718 32.8668 31.8146 32.3935 30.2846 31.4401C28.7612 30.4867 27.6454 29.202 26.9505 27.586C26.249 25.97 26.102 24.2526 26.5029 22.4337L27.4851 17.7141C27.7991 16.2739 28.4405 14.9419 29.4093 13.7316C30.3781 12.5213 31.6276 11.5544 33.1509 10.8309C34.6743 10.1074 36.4248 9.74902 38.3892 9.74902C40.2399 9.74902 41.9103 10.1683 43.3936 11.0067C44.8769 11.8451 45.9793 12.9811 46.7076 14.428C47.4358 15.8682 47.7098 17.4437 47.5427 19.1476C47.516 19.4924 47.4692 19.8237 47.4158 20.1415C47.3556 20.4593 47.3022 20.8042 47.2421 21.1828C47.1285 21.7576 46.8011 22.2782 46.2599 22.738C45.7187 23.1978 45.0506 23.4277 44.2488 23.4277H30.3046L32.9973 21.5209L32.5696 23.7252C32.4561 24.3878 32.5229 25.0369 32.7634 25.6725C33.0039 26.3081 33.4048 26.8355 33.9594 27.2547C34.514 27.6739 35.1954 27.8835 35.9905 27.8835C36.8458 27.8835 37.6008 27.7821 38.2556 27.5793C38.9103 27.3764 39.5985 27.0451 40.3068 26.5853C40.848 26.2946 41.2756 26.0985 41.5896 25.9768C41.9036 25.8618 42.2444 25.801 42.6185 25.801C43.2733 25.801 43.8011 26.0241 44.202 26.4704C44.6029 26.9166 44.8034 27.4576 44.8034 28.0931C44.8034 28.5529 44.6564 29.0465 44.3557 29.5672C44.055 30.0878 43.6074 30.5611 43.006 30.9939C42.1775 31.5686 41.1486 32.0284 39.9058 32.3597C38.6631 32.691 37.2199 32.86 35.5629 32.86L35.5696 32.8668ZM33.1776 20.8312L31.5941 18.9718H43.0595L40.9615 20.8786L41.3023 18.9312C41.4426 18.2956 41.4025 17.6601 41.1753 17.0245C40.9482 16.3889 40.5473 15.8683 39.9793 15.4693C39.4114 15.0636 38.7366 14.8608 37.9683 14.8608C37.1999 14.8608 36.5518 15.0298 35.9371 15.3611C35.3224 15.6924 34.8347 16.1387 34.4605 16.6999C34.0863 17.2611 33.8191 17.9035 33.6453 18.627L33.1776 20.8312Z" fill="white"/>
<path d="M53.7024 15.686C52.9607 15.686 52.3126 15.4426 51.758 14.949C51.2035 14.4554 50.9229 13.8266 50.9229 13.0423C50.9229 12.2579 51.1968 11.6291 51.738 11.1355C52.2792 10.6419 52.9607 10.3985 53.7892 10.3985H64.9071C65.7022 10.3985 66.377 10.6419 66.9182 11.1355C67.4594 11.6291 67.7334 12.2579 67.7334 13.0423C67.7334 13.8266 67.4594 14.4216 66.9182 14.922C66.377 15.4291 65.7089 15.6793 64.9071 15.6793H53.7024V15.686ZM58.239 32.2181C56.6154 32.2181 55.2658 31.88 54.1968 31.2038C53.1277 30.5277 52.3928 29.5946 51.9919 28.4113C51.591 27.228 51.5509 25.9163 51.865 24.4693L55.4997 7.32877C55.6132 6.66613 55.9406 6.09816 56.4818 5.61809C57.023 5.14478 57.7246 4.90137 58.5798 4.90137C59.2613 4.90137 59.8626 5.07716 60.3771 5.422C60.8916 5.76684 61.2524 6.21311 61.4662 6.7608C61.68 7.30848 61.7134 7.91703 61.5731 8.57966L58.1923 24.4626C58.0185 25.2401 58.0653 25.8419 58.3192 26.2611C58.5731 26.6804 59.0608 26.89 59.7758 26.89H62.5152C63.2301 26.89 63.8381 27.1537 64.3526 27.6878C64.867 28.222 65.1209 28.8508 65.1209 29.5675C65.1209 30.2843 64.867 30.9063 64.3526 31.427C63.8381 31.9476 63.2234 32.2046 62.5152 32.2046H58.239V32.2181Z" fill="white"/>
<path d="M71.7961 16.2473C71.0545 16.2473 70.4063 16.0039 69.8518 15.5103C69.2972 15.0234 69.0166 14.3878 69.0166 13.6035C69.0166 12.8192 69.2972 12.1903 69.8518 11.6967C70.4063 11.2099 71.0878 10.9597 71.8829 10.9597H82.62C83.4151 10.9597 84.0899 11.2031 84.6311 11.6967C85.1723 12.1903 85.4463 12.8192 85.4463 13.6035C85.4463 14.3878 85.1723 15.0167 84.6311 15.5103C84.0899 16.0039 83.4218 16.2473 82.62 16.2473H71.7961ZM72.2237 32.4345C71.5088 32.4345 70.9075 32.2654 70.4064 31.9341C69.9052 31.6028 69.5377 31.1633 69.2972 30.6156C69.0567 30.0679 69.0032 29.4932 69.1502 28.8846L73.4731 8.53909C73.727 7.24087 74.2548 6.05082 75.0566 4.96897C75.8517 3.88712 76.8673 3.0284 78.09 2.39282C79.3127 1.75723 80.6957 1.43945 82.2392 1.43945H86.0008C86.7692 1.43945 87.4106 1.69639 87.9251 2.21703C88.4395 2.73767 88.6935 3.37324 88.6935 4.12377C88.6935 4.87431 88.4462 5.46256 87.9451 5.9832C87.444 6.50384 86.7959 6.7608 86.0008 6.7608H82.2793C81.5644 6.7608 80.9964 6.95688 80.5688 7.34228C80.1412 7.73446 79.8539 8.27538 79.7136 8.96505L75.2638 30.0476C75.1235 30.6832 74.776 31.2377 74.2348 31.711C73.6936 32.1843 73.0255 32.4277 72.2237 32.4277V32.4345Z" fill="white"/>
<path d="M89.5421 32.4349C88.8004 32.4349 88.1724 32.2591 87.6579 31.9143C87.1434 31.5694 86.7893 31.1164 86.5888 30.5484C86.3884 29.9872 86.3617 29.3719 86.502 28.7093L89.8828 12.5627C90.0231 11.9 90.3705 11.3388 90.9117 10.8723C91.4529 10.4125 92.1345 10.1826 92.963 10.1826C93.6445 10.1826 94.2458 10.3516 94.7603 10.683C95.2747 11.0143 95.6422 11.4538 95.8694 12.0015C96.0965 12.5492 96.1433 13.1239 95.9963 13.7324L92.5754 30.0481C92.4351 30.6837 92.0877 31.2381 91.5465 31.7114C91.0053 32.1847 90.3371 32.4282 89.5354 32.4282L89.5421 32.4349Z" fill="white"/>
<path d="M101.047 32.4342C100.332 32.4342 99.731 32.2652 99.2299 31.9338C98.7288 31.6025 98.368 31.1698 98.1408 30.6356C97.9136 30.1015 97.8535 29.52 97.9671 28.8844L101.388 12.5687C101.528 11.9061 101.876 11.3449 102.417 10.8783C102.958 10.4186 103.64 10.1887 104.468 10.1887C105.036 10.1887 105.55 10.3239 106.005 10.6011C106.459 10.8783 106.8 11.23 107.034 11.6627C107.261 12.0954 107.334 12.5552 107.248 13.0488L106.907 14.8677L105.711 12.1428H107.675C108.13 11.4801 108.858 10.9189 109.853 10.4524C110.849 9.99258 111.918 9.7627 113.06 9.7627C114.657 9.7627 116.034 10.236 117.19 11.1894C118.345 12.1428 119.147 13.3869 119.608 14.9353C120.063 16.4769 120.123 18.0862 119.782 19.763L117.604 30.0677C117.43 30.7573 117.076 31.3321 116.535 31.7783C115.994 32.2246 115.339 32.4477 114.57 32.4477C113.889 32.4477 113.288 32.2787 112.773 31.9474C112.259 31.6161 111.898 31.1833 111.684 30.6492C111.47 30.115 111.423 29.5335 111.537 28.8979L113.548 19.2897C113.749 18.4513 113.742 17.7075 113.528 17.0584C113.314 16.4093 112.96 15.8954 112.459 15.5235C111.958 15.1517 111.337 14.9623 110.602 14.9623C109.867 14.9623 109.245 15.1178 108.677 15.4356C108.109 15.7534 107.642 16.1659 107.288 16.6662C106.934 17.1734 106.68 17.7413 106.539 18.3769L104.101 30.0609C103.927 30.7235 103.573 31.2847 103.032 31.7513C102.49 32.2111 101.836 32.441 101.067 32.441L101.047 32.4342Z" fill="white"/>
<path d="M0.291375 30.6631C1.9016 32.3873 3.73231 33.6585 5.7167 34.5037C7.69441 35.3489 9.80573 35.7613 11.9237 35.7681C14.0418 35.7681 16.1531 35.3556 18.1308 34.5037C20.1152 33.6585 21.9459 32.3873 23.5562 30.6631C23.623 30.5887 23.7299 30.5887 23.8034 30.6563C23.8568 30.7037 23.8702 30.778 23.8501 30.8389C23.0484 33.1514 21.2911 35.1393 19.1531 36.4713C17.0083 37.8101 14.4627 38.4998 11.9304 38.4998C9.39817 38.4998 6.85254 37.8101 4.7078 36.4713C2.56974 35.146 0.812539 33.1581 0.0107656 30.8389C-0.0226416 30.751 0.0241105 30.6496 0.117651 30.6158C0.184465 30.5955 0.257974 30.6158 0.298063 30.6631H0.291375Z" fill="#FFC800"/>
<path d="M94.6329 6.68682C93.751 6.68682 93.036 6.42313 92.4948 5.88897C91.9536 5.3548 91.6797 4.67188 91.6797 3.83344C91.6797 2.90711 92.0205 2.12278 92.7087 1.47367C93.3902 0.824557 94.232 0.5 95.2342 0.5C96.1496 0.5 96.8712 0.763696 97.4124 1.29786C97.9536 1.83202 98.2275 2.52847 98.2275 3.39395C98.2275 4.25943 97.8868 5.0573 97.1986 5.70641C96.5104 6.35552 95.6619 6.68008 94.6329 6.68008V6.68682Z" fill="#FFC800"/>
</svg>
